<svg xmlns="http://www.w3.org/2000/svg" viewBox="0 0 847.36 146.66"><defs><style>.cls-1,.cls-2{fill:#fff;}.cls-2{fill-rule:evenodd;}</style></defs><g id="Layer_2" data-name="Layer 2"><g id="Layer_1-2" data-name="Layer 1"><path class="cls-1" d="M227.61,0a73,73,0,0,0-64.82,38.73A111.07,111.07,0,0,1,176,37.94c3.59,0,7.23.19,10.87.52a51.46,51.46,0,0,1,40.76-19.64c27.06,0,47.84,19.64,51.93,45.12.95.26,1.28.33,1.32.33l.37.07.36.09a111.6,111.6,0,0,0,19.16,3A73,73,0,0,0,227.61,0ZM456,146.59h79.12V127h-57.8V82.41h57.8V62.85h-57.8V19.78h57.8V0H456Zm98.2,0h79.12V127h-57.8V82.41h57.8V62.85h-57.8V19.78h57.8V0H554.24ZM840,77c-8-11.63-17.77-14.17-30.68-18C797.44,55.63,786,52.67,786,38.29c0-10.16,8.67-19.47,19-19.47,11.63,0,18.4,9.73,19,20.52H845C844,17.13,829,0,806.11,0c-23.9,0-40.61,18-40.61,41.46,0,9.73,3,18.61,9.52,26,6.77,7.82,13.54,9.09,23.27,12.26,12.9,4.23,28.55,7.61,28.55,24.54,0,12.9-9.73,23.48-22.84,23.48-15.66,0-22.42-11.21-23.9-25.59H759.79c.42,25.59,18.19,44.42,44,44.42,25.38,0,43.57-20.1,43.57-45.06A42,42,0,0,0,840,77ZM735.24,74.32c8.14-8.79,11.44-18.69,11.44-30.57C746.68,18.69,728.87,0,703.58,0h-51V146.66H673.9V88.83h6.85L721,146.59h25.45L705.88,88.38C717.09,87.31,726.49,83.91,735.24,74.32Zm-39.35-5.06h-22V19.79h21.77c16.27,0,29.46,5.72,29.46,24C725.13,61.35,712.16,69.26,695.89,69.26ZM51,0H0V146.66H21.33V88.83H42.44c16.27,0,28.8-2,40.23-14.51,8.14-8.79,11.44-18.69,11.44-30.57C94.11,18.69,76.3,0,51,0ZM43.32,69.26h-22V19.79H43.1c16.27,0,29.46,5.72,29.46,24C72.56,61.35,59.59,69.26,43.32,69.26ZM268,108.85a51.2,51.2,0,0,1-40.35,18.91c-26.88,0-47.32-19.11-51.76-44.25-1.36-.37-1.8-.46-1.85-.47l-.37-.06-.36-.09a112.56,112.56,0,0,0-18.75-3A73.46,73.46,0,0,0,292,108.6a114.15,114.15,0,0,1-13.13.77C275.26,109.37,271.61,109.18,268,108.85ZM113.56,87.4v59.19h21.32V80.76a77.26,77.26,0,0,0-9.32,2.08Zm0-31.26a165.39,165.39,0,0,1,21.32-10.33V0H113.56ZM320.3,146.59h21.32V91a165.31,165.31,0,0,1-21.32,10.38Zm94.94-34.95L343.6,0H320.3V66.51a76.77,76.77,0,0,0,9-2l12.32-4.68V33.4l73,113.19h22.19V0H415.24Z"/><path class="cls-2" d="M278.67,76.51C276,76,263.6,72.35,239.9,64.68c-22.31-7.22-38.27-11.52-49.33-13.29a100.31,100.31,0,0,0-42.4,3c-13.91,4.14-29.6,12.15-47,24.46l20.39-7.76c17-5.06,35.12-5,54.6-.24,2.65.47,15.07,4.16,38.77,11.83,22.31,7.22,38.27,11.51,49.33,13.29a100.31,100.31,0,0,0,42.4-3c13.91-4.14,29.6-12.15,47-24.46l-20.4,7.75C316.27,81.32,298.15,81.23,278.67,76.51Z"/></g></g></svg>