<svg width="149" height="151" viewBox="0 0 149 151" fill="none" xmlns="http://www.w3.org/2000/svg">
<rect y="0.69043" width="148.101" height="150" fill="#FF5E5F"/>
<path fill-rule="evenodd" clip-rule="evenodd" d="M98.822 77.074C97.5315 76.8246 91.5382 75.0396 80.0833 71.2888C69.3003 67.7581 61.5864 65.6553 56.2408 64.7897C49.3846 63.7919 42.3967 64.2922 35.7477 66.2568C29.0246 68.2813 21.4412 72.1984 13.0312 78.2183L22.8863 74.4235C31.1029 71.949 39.8608 71.9784 49.276 74.3061C50.5568 74.5359 56.5598 76.3404 68.0146 80.0912C78.7977 83.622 86.5116 85.7199 91.8572 86.5904C98.7134 87.5881 105.701 87.0879 112.35 85.1233C119.073 83.0987 126.657 79.1817 135.067 73.1618L125.207 76.9517C116.995 79.4262 108.237 79.3822 98.822 77.074Z" fill="#FFF0EB"/>
</svg>
