<?xml version="1.0" encoding="utf-8"?>
<!-- Generator: Adobe Illustrator 26.3.1, SVG Export Plug-In . SVG Version: 6.00 Build 0)  -->
<svg version="1.1" id="Layer_1" xmlns="http://www.w3.org/2000/svg" xmlns:xlink="http://www.w3.org/1999/xlink" x="0px" y="0px"
	 viewBox="0 0 847.4 146.7" style="enable-background:new 0 0 847.4 146.7;" xml:space="preserve">
<style type="text/css">
	.st0{fill:#333333;}
	.st1{fill-rule:evenodd;clip-rule:evenodd;fill:#333333;}
</style>
<g id="Layer_2_00000139984433050321488460000011981865176936668068_">
	<g id="Layer_1-2">
		<path class="st0" d="M227.6,0c-27.1-0.1-52.1,14.8-64.8,38.7c4.4-0.5,8.8-0.8,13.2-0.8c3.6,0,7.2,0.2,10.9,0.5
			c9.8-12.5,24.9-19.7,40.8-19.6c27.1,0,47.8,19.6,51.9,45.1c1,0.3,1.3,0.3,1.3,0.3l0.4,0.1l0.4,0.1c6.3,1.6,12.7,2.6,19.2,3
			C297.9,29.3,265.9-0.2,227.6,0z M456,146.6h79.1V127h-57.8V82.4h57.8V62.9h-57.8V19.8h57.8V0H456V146.6z M554.2,146.6h79.1V127
			h-57.8V82.4h57.8V62.9h-57.8V19.8h57.8V0h-79.1L554.2,146.6z M840,77c-8-11.6-17.8-14.2-30.7-18c-11.9-3.4-23.3-6.3-23.3-20.7
			c0-10.2,8.7-19.5,19-19.5c11.6,0,18.4,9.7,19,20.5h21C844,17.2,829,0,806.1,0c-23.9,0-40.6,18-40.6,41.5c0,9.7,3,18.6,9.5,26
			c6.8,7.8,13.5,9.1,23.3,12.3c12.9,4.2,28.5,7.6,28.5,24.5c0,12.9-9.7,23.5-22.8,23.5c-15.7,0-22.4-11.2-23.9-25.6h-20.3
			c0.4,25.6,18.2,44.4,44,44.4c25.4,0,43.6-20.1,43.6-45.1C847.5,92.8,845,84.2,840,77z M735.3,74.3c8.1-8.8,11.4-18.7,11.4-30.6
			c0-25.1-17.8-43.8-43.1-43.8h-51v146.7h21.3V88.9h6.8l40.2,57.8h25.5l-40.6-58.2C717.1,87.3,726.5,83.9,735.3,74.3z M695.9,69.3
			h-22V19.8h21.8c16.3,0,29.5,5.7,29.5,24C725.1,61.4,712.2,69.3,695.9,69.3z M51,0H0v146.7h21.3V88.9h21.1c16.3,0,28.8-2,40.2-14.5
			c8.1-8.8,11.4-18.7,11.4-30.6C94.1,18.7,76.3,0,51,0z M43.3,69.3h-22V19.8h21.8c16.3,0,29.5,5.7,29.5,24
			C72.6,61.4,59.6,69.3,43.3,69.3z M268,108.9c-9.9,12.1-24.7,19.1-40.4,18.9c-26.9,0-47.3-19.1-51.8-44.2c-1.4-0.4-1.8-0.5-1.9-0.5
			l-0.4-0.1l-0.4-0.1c-6.2-1.5-12.4-2.5-18.8-3c3.8,40.4,39.6,70.1,80,66.3c24.2-2.3,45.7-16.3,57.5-37.6c-4.4,0.5-8.7,0.8-13.1,0.8
			C275.3,109.4,271.6,109.2,268,108.9z M113.6,87.4v59.2h21.3V80.8c-3.1,0.5-6.3,1.2-9.3,2.1L113.6,87.4z M113.6,56.2
			c6.9-3.9,14-7.4,21.3-10.3V0h-21.3V56.2z M320.3,146.6h21.3V91c-6.8,4-14,7.4-21.3,10.4V146.6z M415.3,111.7L343.6,0h-23.3v66.5
			c3-0.5,6-1.2,9-2l12.3-4.7V33.4l73,113.2h22.2V0h-21.6V111.7z"/>
		<path class="st1" d="M278.7,76.5c-2.7-0.5-15.1-4.2-38.8-11.8c-22.3-7.2-38.3-11.5-49.3-13.3c-14.2-2-28.6-1-42.4,3
			c-13.9,4.1-29.6,12.1-47,24.5l20.4-7.8c17-5.1,35.1-5,54.6-0.2c2.6,0.5,15.1,4.2,38.8,11.8c22.3,7.2,38.3,11.5,49.3,13.3
			c14.2,2,28.6,1,42.4-3c13.9-4.1,29.6-12.2,47-24.5l-20.4,7.8C316.3,81.3,298.2,81.3,278.7,76.5z"/>
	</g>
</g>
</svg>
