<?xml version="1.0" encoding="UTF-8" standalone="no"?>
<!-- Created with Inkscape (http://www.inkscape.org/) -->

<svg
   width="145.94893mm"
   height="33.426594mm"
   viewBox="0 0 145.94893 33.426594"
   version="1.1"
   id="svg1"
   xml:space="preserve"
   sodipodi:docname="pioneers-bw.svg"
   inkscape:version="1.4 (e7c3feb1, 2024-10-09)"
   xmlns:inkscape="http://www.inkscape.org/namespaces/inkscape"
   xmlns:sodipodi="http://sodipodi.sourceforge.net/DTD/sodipodi-0.dtd"
   xmlns="http://www.w3.org/2000/svg"
   xmlns:svg="http://www.w3.org/2000/svg"><sodipodi:namedview
     id="namedview1"
     pagecolor="#ffffff"
     bordercolor="#000000"
     borderopacity="0.25"
     inkscape:showpageshadow="2"
     inkscape:pageopacity="0.0"
     inkscape:pagecheckerboard="0"
     inkscape:deskcolor="#d1d1d1"
     inkscape:document-units="mm"
     inkscape:zoom="0.53417909"
     inkscape:cx="67.393128"
     inkscape:cy="5.616094"
     inkscape:window-width="1440"
     inkscape:window-height="847"
     inkscape:window-x="0"
     inkscape:window-y="25"
     inkscape:window-maximized="1"
     inkscape:current-layer="layer1" /><defs
     id="defs1"><style
       id="style1">.cls-1,.cls-2{fill:#fff;}.cls-2{fill-rule:evenodd;}</style></defs><g
     inkscape:label="Layer 1"
     inkscape:groupmode="layer"
     id="layer1"
     transform="translate(-32.025536,-131.78671)"><g
       id="g1"><rect
         style="fill:#000000;fill-opacity:1;stroke:none;stroke-width:1.52187"
         id="rect1"
         width="145.94893"
         height="33.426594"
         x="32.025536"
         y="131.78671"
         ry="0" /><g
         id="Layer_1-2"
         data-name="Layer 1"
         transform="matrix(0.14995622,0,0,0.14995622,41.466047,137.50379)"
         style="stroke:none"><path
           class="cls-1"
           d="M 227.61,0 A 73,73 0 0 0 162.79,38.73 111.07,111.07 0 0 1 176,37.94 c 3.59,0 7.23,0.19 10.87,0.52 a 51.46,51.46 0 0 1 40.76,-19.64 c 27.06,0 47.84,19.64 51.93,45.12 0.95,0.26 1.28,0.33 1.32,0.33 l 0.37,0.07 0.36,0.09 a 111.6,111.6 0 0 0 19.16,3 A 73,73 0 0 0 227.61,0 Z M 456,146.59 h 79.12 V 127 h -57.8 V 82.41 h 57.8 V 62.85 h -57.8 V 19.78 h 57.8 V 0 H 456 Z m 98.2,0 h 79.12 V 127 h -57.8 V 82.41 h 57.8 V 62.85 h -57.8 V 19.78 h 57.8 V 0 H 554.24 Z M 840,77 C 832,65.37 822.23,62.83 809.32,59 797.44,55.63 786,52.67 786,38.29 c 0,-10.16 8.67,-19.47 19,-19.47 11.63,0 18.4,9.73 19,20.52 h 21 C 844,17.13 829,0 806.11,0 782.21,0 765.5,18 765.5,41.46 c 0,9.73 3,18.61 9.52,26 6.77,7.82 13.54,9.09 23.27,12.26 12.9,4.23 28.55,7.61 28.55,24.54 0,12.9 -9.73,23.48 -22.84,23.48 -15.66,0 -22.42,-11.21 -23.9,-25.59 h -20.31 c 0.42,25.59 18.19,44.42 44,44.42 25.38,0 43.57,-20.1 43.57,-45.06 A 42,42 0 0 0 840,77 Z M 735.24,74.32 C 743.38,65.53 746.68,55.63 746.68,43.75 746.68,18.69 728.87,0 703.58,0 h -51 V 146.66 H 673.9 V 88.83 h 6.85 L 721,146.59 h 25.45 L 705.88,88.38 c 11.21,-1.07 20.61,-4.47 29.36,-14.06 z m -39.35,-5.06 h -22 V 19.79 h 21.77 c 16.27,0 29.46,5.72 29.46,24 0.01,17.56 -12.96,25.47 -29.23,25.47 z M 51,0 H 0 V 146.66 H 21.33 V 88.83 h 21.11 c 16.27,0 28.8,-2 40.23,-14.51 C 90.81,65.53 94.11,55.63 94.11,43.75 94.11,18.69 76.3,0 51,0 Z m -7.68,69.26 h -22 V 19.79 H 43.1 c 16.27,0 29.46,5.72 29.46,24 0,17.56 -12.97,25.47 -29.24,25.47 z M 268,108.85 a 51.2,51.2 0 0 1 -40.35,18.91 c -26.88,0 -47.32,-19.11 -51.76,-44.25 -1.36,-0.37 -1.8,-0.46 -1.85,-0.47 l -0.37,-0.06 -0.36,-0.09 a 112.56,112.56 0 0 0 -18.75,-3 73.46,73.46 0 0 0 137.44,28.71 114.15,114.15 0 0 1 -13.13,0.77 c -3.61,0 -7.26,-0.19 -10.87,-0.52 z M 113.56,87.4 v 59.19 h 21.32 V 80.76 a 77.26,77.26 0 0 0 -9.32,2.08 z m 0,-31.26 A 165.39,165.39 0 0 1 134.88,45.81 V 0 h -21.32 z m 206.74,90.45 h 21.32 V 91 A 165.31,165.31 0 0 1 320.3,101.38 Z M 415.24,111.64 343.6,0 h -23.3 v 66.51 a 76.77,76.77 0 0 0 9,-2 l 12.32,-4.68 V 33.4 l 73,113.19 h 22.19 V 0 h -21.57 z"
           id="path1"
           style="stroke:none" /><path
           class="cls-2"
           d="M 278.67,76.51 C 276,76 263.6,72.35 239.9,64.68 217.59,57.46 201.63,53.16 190.57,51.39 a 100.31,100.31 0 0 0 -42.4,3 c -13.91,4.14 -29.6,12.15 -47,24.46 l 20.39,-7.76 c 17,-5.06 35.12,-5 54.6,-0.24 2.65,0.47 15.07,4.16 38.77,11.83 22.31,7.22 38.27,11.51 49.33,13.29 a 100.31,100.31 0 0 0 42.4,-3 c 13.91,-4.14 29.6,-12.15 47,-24.46 l -20.4,7.75 c -16.99,5.06 -35.11,4.97 -54.59,0.25 z"
           id="path2"
           style="stroke:none" /></g></g></g></svg>
