<?xml version="1.0" encoding="UTF-8" standalone="no"?>
<svg
   enable-background="new 0 0 56.69 56.69"
   height="49.225101"
   id="Layer_1"
   version="1.1"
   viewBox="0 0 49.2263 49.225103"
   width="49.226299"
   xml:space="preserve"
   sodipodi:docname="spotify.svg"
   inkscape:version="1.4 (e7c3feb1, 2024-10-09)"
   xmlns:inkscape="http://www.inkscape.org/namespaces/inkscape"
   xmlns:sodipodi="http://sodipodi.sourceforge.net/DTD/sodipodi-0.dtd"
   xmlns="http://www.w3.org/2000/svg"
   xmlns:svg="http://www.w3.org/2000/svg"><defs
     id="defs1" /><sodipodi:namedview
     id="namedview1"
     pagecolor="#ffffff"
     bordercolor="#000000"
     borderopacity="0.25"
     inkscape:showpageshadow="2"
     inkscape:pageopacity="0.0"
     inkscape:pagecheckerboard="0"
     inkscape:deskcolor="#d1d1d1"
     inkscape:zoom="10.57729"
     inkscape:cx="23.257375"
     inkscape:cy="29.402617"
     inkscape:window-width="1440"
     inkscape:window-height="847"
     inkscape:window-x="0"
     inkscape:window-y="25"
     inkscape:window-maximized="1"
     inkscape:current-layer="Layer_1" /><path
     d="M 24.613,0 C 11.0198,0 0,11.019 0,24.6122 0,38.2054 11.0198,49.2251 24.613,49.2251 38.2066,49.2251 49.2263,38.2054 49.2263,24.6122 49.2263,11.019 38.2065,0 24.613,0 Z"
     id="path1" /><path
     d="m 40.3339,22.1358 c -0.5011,0 -0.7986,-0.1218 -1.2683,-0.379 -4.4549,-2.6711 -11.3684,-4.1423 -18.0547,-4.1423 -3.3375,0 -6.7274,0.3394 -9.8325,1.1818 -0.3576,0.09 -0.8094,0.2692 -1.2621,0.2692 -1.3129,0 -2.3201,-1.0386 -2.3201,-2.3515 0,-1.3378 0.8289,-2.0886 1.7232,-2.3528 3.5085,-1.0336 7.4247,-1.5153 11.6823,-1.5153 7.2273,0 14.8312,1.4866 20.3857,4.7489 0.7485,0.424 1.2683,1.0635 1.2683,2.2352 -1e-4,1.3416 -1.0787,2.3058 -2.3218,2.3058 z"
     id="path4"
     style="fill:#ffffff;fill-opacity:1" /><path
     d="m 37.2803,29.7121 c -0.5341,0 -0.8704,-0.2156 -1.233,-0.4266 -4.0038,-2.376 -9.5529,-3.9546 -15.6295,-3.9546 -3.1168,0 -5.8066,0.436 -8.0333,1.0294 -0.4798,0.1318 -0.749,0.2738 -1.1977,0.2738 -1.0585,0 -1.9226,-0.8626 -1.9226,-1.9296 0,-1.0465 0.5073,-1.7671 1.5309,-2.0557 2.767,-0.7598 5.5921,-1.3459 9.7045,-1.3459 6.4427,0 12.6751,1.6046 17.5749,4.5368 0.8215,0.4716 1.124,1.0689 1.124,1.9454 2e-4,1.066 -0.8485,1.927 -1.9182,1.927 z"
     id="path3"
     style="fill:#ffffff;fill-opacity:1" /><path
     d="m 34.5983,36.2266 c -0.3979,0 -0.6699,-0.138 -1.0418,-0.3646 -3.5675,-2.158 -8.015,-3.2921 -12.7356,-3.2921 -2.6336,0 -5.2842,0.3374 -7.7634,0.8533 -0.403,0.0876 -0.9103,0.2436 -1.2132,0.2436 -0.9347,0 -1.558,-0.7431 -1.558,-1.5468 0,-1.0348 0.5966,-1.549 1.3389,-1.691 3.04,-0.6927 6.0676,-1.0883 9.2123,-1.0883 5.3857,0 10.1859,1.2357 14.3165,3.7111 0.6147,0.3591 0.975,0.7253 0.975,1.6359 1e-4,0.8873 -0.7212,1.5389 -1.5307,1.5389 z"
     id="path2"
     style="fill:#ffffff;fill-opacity:1" /></svg>
