<?xml version="1.0" encoding="UTF-8" standalone="no"?>
<svg
   height="100%"
   style="fill-rule:evenodd;clip-rule:evenodd;stroke-linejoin:round;stroke-miterlimit:2;"
   version="1.1"
   viewBox="0 0 512 512"
   width="100%"
   xml:space="preserve"
   id="svg1"
   sodipodi:docname="youtube.svg"
   inkscape:version="1.4 (e7c3feb1, 2024-10-09)"
   xmlns:inkscape="http://www.inkscape.org/namespaces/inkscape"
   xmlns:sodipodi="http://sodipodi.sourceforge.net/DTD/sodipodi-0.dtd"
   xmlns="http://www.w3.org/2000/svg"
   xmlns:svg="http://www.w3.org/2000/svg"><defs
     id="defs1" /><sodipodi:namedview
     id="namedview1"
     pagecolor="#ffffff"
     bordercolor="#000000"
     borderopacity="0.25"
     inkscape:showpageshadow="2"
     inkscape:pageopacity="0.0"
     inkscape:pagecheckerboard="0"
     inkscape:deskcolor="#d1d1d1"
     inkscape:zoom="0.5855728"
     inkscape:cx="185.28866"
     inkscape:cy="293.72949"
     inkscape:window-width="1440"
     inkscape:window-height="847"
     inkscape:window-x="0"
     inkscape:window-y="25"
     inkscape:window-maximized="1"
     inkscape:current-layer="svg1" /><path
     style="fill-rule:nonzero;"
     d="M 501.303,132.765 C 495.416,110.735 478.068,93.388 456.038,87.5 416.106,76.8 256,76.8 256,76.8 256,76.8 95.893,76.8 55.961,87.5 33.935,93.388 16.584,110.735 10.697,132.765 0,172.693 0,256.003 0,256.003 c 0,0 0,83.308 10.697,123.232 5.887,22.03 23.238,39.382 45.264,45.269 C 95.893,435.2 256,435.2 256,435.2 c 0,0 160.106,0 200.038,-10.696 22.03,-5.887 39.378,-23.239 45.265,-45.269 10.696,-39.924 10.696,-123.232 10.696,-123.232 0,0 0,-83.31 -10.696,-123.238 z"
     id="path1" /><path
     style="fill-rule:nonzero;clip-rule:evenodd;stroke-linejoin:round;stroke-miterlimit:2;fill:#ffffff;fill-opacity:1"
     d="M 204.797,332.804 V 179.201 l 133.019,76.802 z"
     id="path2" /></svg>
